<?xml version="1.0" encoding="UTF-8"?>
<svg id="Unbroken_Code" data-name="Unbroken Code" xmlns="http://www.w3.org/2000/svg" width="1024" height="1024" xmlns:xlink="http://www.w3.org/1999/xlink" viewBox="0 0 1024 1024">
  <defs>
    <style>
      .cls-1 {
        fill: url(#radial-gradient);
        filter: url(#drop-shadow-1);
      }

      .cls-2 {
        fill: #23aef3;
      }
    </style>
    <radialGradient id="radial-gradient" cx="806.58" cy="190.23" fx="806.58" fy="190.23" r="1038.31" gradientUnits="userSpaceOnUse">
      <stop offset="0" stop-color="#595959"/>
      <stop offset=".58" stop-color="#555"/>
      <stop offset="1" stop-color="#4d4d4d"/>
    </radialGradient>
    <filter id="drop-shadow-1" x="41" y="56" width="930" height="930" filterUnits="userSpaceOnUse">
      <feOffset dx="-6" dy="9"/>
      <feGaussianBlur result="blur" stdDeviation="5"/>
      <feFlood flood-color="#000" flood-opacity=".22"/>
      <feComposite in2="blur" operator="in"/>
      <feComposite in="SourceGraphic"/>
    </filter>
  </defs>
  <rect class="cls-1" x="62" y="62" width="900" height="900" rx="80.76" ry="80.76"/>
  <g>
    <polygon class="cls-2" points="765.58 822.07 671.37 822.07 718.48 740.49 765.58 658.9 812.69 740.49 859.79 822.07 765.58 822.07"/>
    <polygon class="cls-2" points="638.73 602.36 544.52 602.36 591.63 520.77 638.73 439.18 685.84 520.77 732.95 602.36 638.73 602.36"/>
    <polygon class="cls-2" points="511.9 822.07 417.69 822.07 464.8 740.49 511.9 658.9 559.01 740.49 606.11 822.07 511.9 822.07"/>
    <polygon class="cls-2" points="638.73 640.04 732.95 640.04 685.84 721.63 638.73 803.22 591.63 721.63 544.52 640.04 638.73 640.04"/>
    <polygon class="cls-2" points="340.51 575.79 249.2 598.98 274.76 508.31 300.33 417.63 366.07 485.11 431.82 552.59 340.51 575.79"/>
    <polygon class="cls-2" points="258.23 822.07 164.01 822.07 211.12 740.49 258.23 658.9 305.33 740.49 352.44 822.07 258.23 822.07"/>
    <polygon class="cls-2" points="385.06 640.04 479.27 640.04 432.16 721.63 385.06 803.22 337.95 721.63 290.85 640.04 385.06 640.04"/>
    <polygon class="cls-2" points="446.28 306.3 362.53 349.44 367.05 255.33 371.57 161.23 450.8 212.2 530.04 263.16 446.28 306.3"/>
    <polygon class="cls-2" points="486.34 380.19 579.56 366.61 544.71 454.14 509.86 541.67 451.49 467.72 393.11 393.78 486.34 380.19"/>
  </g>
  <g>
    <path class="cls-2" d="M647.6,232.66c0,3.1-.61,6.03-1.81,8.79-1.21,2.76-2.83,5.16-4.88,7.2-2.04,2.04-4.44,3.67-7.2,4.88-2.76,1.21-5.69,1.81-8.79,1.81h-11.34c-3.1,0-6.03-.6-8.79-1.81-2.76-1.21-5.16-2.83-7.2-4.88-2.04-2.04-3.67-4.44-4.88-7.2-1.21-2.76-1.81-5.69-1.81-8.79v-34.02c0-3.1.6-6.03,1.81-8.79,1.21-2.76,2.83-5.16,4.88-7.2s4.44-3.67,7.2-4.88c2.76-1.21,5.69-1.81,8.79-1.81h11.34c3.1,0,6.03.61,8.79,1.81,2.76,1.21,5.16,2.83,7.2,4.88s3.67,4.44,4.88,7.2c1.21,2.76,1.81,5.69,1.81,8.79h-11.34c0-3.17-1.1-5.86-3.29-8.05-2.19-2.19-4.88-3.29-8.05-3.29h-11.34c-3.17,0-5.86,1.1-8.05,3.29-2.19,2.19-3.29,4.88-3.29,8.05v34.02c0,3.17,1.09,5.86,3.29,8.05,2.19,2.19,4.88,3.29,8.05,3.29h11.34c3.17,0,5.86-1.1,8.05-3.29s3.29-4.88,3.29-8.05h11.34Z"/>
    <path class="cls-2" d="M715.63,232.66c0,3.1-.61,6.03-1.81,8.79-1.21,2.76-2.83,5.16-4.88,7.2-2.04,2.04-4.44,3.67-7.2,4.88-2.76,1.21-5.69,1.81-8.79,1.81h-11.34c-3.1,0-6.03-.6-8.79-1.81-2.76-1.21-5.16-2.83-7.2-4.88-2.04-2.04-3.67-4.44-4.88-7.2-1.21-2.76-1.81-5.69-1.81-8.79v-34.02c0-3.1.6-6.03,1.81-8.79,1.21-2.76,2.83-5.16,4.88-7.2s4.44-3.67,7.2-4.88c2.76-1.21,5.69-1.81,8.79-1.81h11.34c3.1,0,6.03.61,8.79,1.81,2.76,1.21,5.16,2.83,7.2,4.88s3.67,4.44,4.88,7.2c1.21,2.76,1.81,5.69,1.81,8.79v34.02ZM704.29,232.66v-34.02c0-3.17-1.1-5.86-3.29-8.05-2.19-2.19-4.88-3.29-8.05-3.29h-11.34c-3.17,0-5.86,1.1-8.05,3.29-2.19,2.19-3.29,4.88-3.29,8.05v34.02c0,3.17,1.09,5.86,3.29,8.05,2.19,2.19,4.88,3.29,8.05,3.29h11.34c3.17,0,5.86-1.1,8.05-3.29s3.29-4.88,3.29-8.05Z"/>
    <path class="cls-2" d="M783.66,232.66c0,3.1-.61,6.03-1.81,8.79-1.21,2.76-2.83,5.16-4.88,7.2-2.04,2.04-4.44,3.67-7.2,4.88-2.76,1.21-5.69,1.81-8.79,1.81h-34.02v-79.37h34.02c3.1,0,6.03.61,8.79,1.81,2.76,1.21,5.16,2.83,7.2,4.88s3.67,4.44,4.88,7.2c1.21,2.76,1.81,5.69,1.81,8.79v34.02ZM772.32,232.66v-34.02c0-3.17-1.1-5.86-3.29-8.05-2.19-2.19-4.88-3.29-8.05-3.29h-22.68v56.69h22.68c3.17,0,5.86-1.1,8.05-3.29s3.29-4.88,3.29-8.05Z"/>
    <path class="cls-2" d="M851.69,255.33h-56.69v-79.37h56.69v11.34h-45.35v22.68h34.02v11.34h-34.02v22.68h45.35v11.34Z"/>
  </g>
</svg>